Patient4_TMGait_0pt3_01_left_16_GRF.mot
version=1
nRows=58
nColumns=19
inDegrees=no
endheader
time	F1x	F1y	F1z	M1x	M1y	M1z	F2x	F2y	F2z	M2x	M2y	M2z	EC1x	EC1y	EC1z	EC2x	EC2y	EC2z
29.62	-20.2703	9.7713	0.90765	-3.367	-6.6756	12.7765	-34.6175	795.543	-46.0569	270.646	66.582	863.9087	-0.0592	0.0182	-0.0073	-0.0462	0.0165	0.9585
29.6396	-13.8144	6.6511	0.68168	-2.2848	-4.6195	8.6367	-35.763	794.9628	-45.9742	270.9736	66.1231	861.2781	-0.0592	0.0182	-0.0073	-0.0462	0.0165	0.9585
29.6593	-8.2629	3.932	0.47375	-1.344	-2.8237	5.0737	-36.673	795.7359	-45.8293	271.6995	65.5212	859.5579	-0.0592	0.0182	-0.0073	-0.0462	0.0165	0.9585
29.6789	-3.9813	1.8092	0.30172	-0.61115	-1.4183	2.3295	-37.2961	798.0603	-45.6023	272.8557	64.7713	859.0193	-0.0592	0.0182	-0.0073	-0.0462	0.0165	0.9585
29.6986	-0.98535	0.30598	0.16987	-0.093594	-0.41999	0.41666	-37.5685	801.8028	-45.2939	274.3866	63.8662	859.5777	-0.0592	0.0182	-0.0073	-0.0462	0.0165	0.9585
29.7182	0.89682	-0.65728	0.077504	0.23627	0.21568	-0.78056	-37.4081	806.439	-44.8966	276.1175	62.7756	860.7216	-0.0592	0.0182	-0.0073	-0.0462	0.0165	0.9585
29.7379	1.9102	-1.2058	0.019055	0.42357	0.55821	-1.4359	-36.7444	811.0921	-44.387	277.7591	61.4462	861.5668	-0.0592	0.0182	-0.0073	-0.0462	0.0165	0.9585
29.7575	2.303	-1.4779	-0.012025	0.51841	0.68078	-1.7344	-35.5305	814.6835	-43.7393	278.9526	59.8214	861.0199	-0.0592	0.0182	-0.0073	-0.0462	0.0165	0.9585
29.7771	2.2923	-1.6048	-0.021092	0.56928	0.6525	-1.8452	-33.7403	816.1581	-42.9382	279.3442	57.86	858.0132	-0.0592	0.0182	-0.0073	-0.0462	0.0165	0.9585
29.7968	2.0504	-1.7015	-0.012114	0.61947	0.53234	-1.914	-31.3734	814.7173	-41.9771	278.6673	55.5411	851.7499	-0.0592	0.0182	-0.0073	-0.0462	0.0165	0.9585
29.8164	1.7005	-1.8649	0.011113	0.7059	0.36701	-2.0609	-28.4479	809.9736	-40.8473	276.7979	52.8532	841.8611	-0.0592	0.0182	-0.0073	-0.0462	0.0165	0.9585
29.8361	1.3255	-2.1742	0.044401	0.85555	0.1901	-2.3799	-24.9746	802.0144	-39.5487	273.7777	49.802	828.4588	-0.0592	0.0182	-0.0073	-0.0462	0.0165	0.9585
29.8557	0.98263	-2.6771	0.081916	1.0827	0.028708	-2.926	-20.9559	791.376	-38.1026	269.8021	46.4203	812.1086	-0.0592	0.0182	-0.0073	-0.0462	0.0165	0.9585
29.8754	0.71289	-3.3705	0.11319	1.384	-0.090843	-3.6961	-16.4289	778.9479	-36.5528	265.1837	42.779	793.7569	-0.0592	0.0182	-0.0073	-0.0462	0.0165	0.9585
29.895	0.55934	-4.1817	0.12444	1.7305	-0.13911	-4.6141	-11.4945	765.8529	-34.9807	260.3103	39.0072	774.6168	-0.0592	0.0182	-0.0073	-0.0462	0.0165	0.9585
29.9146	0.57364	-4.9529	0.097181	2.0582	-0.077081	-5.5084	-6.3127	753.3217	-33.4971	255.6069	35.28	756.0232	-0.0592	0.0182	-0.0073	-0.0462	0.0165	0.9585
29.9343	0.82265	-5.4134	0.0088724	2.2541	0.14662	-6.0781	-1.0796	742.5408	-32.2088	251.4884	31.776	739.2702	-0.0592	0.0182	-0.0073	-0.0462	0.0165	0.9585
29.9539	1.3869	-5.1554	-0.16283	2.1434	0.59191	-5.8617	4	734.4481	-31.2198	248.2864	28.6649	725.3908	-0.0592	0.0182	-0.0073	-0.0462	0.0165	0.9585
29.9736	2.3499	-3.6134	-0.43714	1.4814	1.3194	-4.2111	8.7258	729.5039	-30.6496	246.1655	26.1166	714.9171	-0.0592	0.0182	-0.0073	-0.0462	0.0165	0.9585
29.9932	3.7745	-0.070124	-0.82183	-0.042205	2.3689	-0.30385	12.9277	727.5179	-30.6081	245.0662	24.2736	707.7078	-0.0592	0.0182	-0.0073	-0.0462	0.0165	0.9585
30.0129	5.6717	6.2822	-1.3047	-2.7749	3.7309	6.7811	16.5045	727.6188	-31.1365	244.6998	23.1929	702.9217	-0.0592	0.0182	-0.0073	-0.0462	0.0165	0.9585
30.0325	7.9482	16.2085	-1.8375	-7.0398	5.3083	17.9167	19.4057	728.3591	-32.173	244.585	22.825	699.1424	-0.0592	0.0182	-0.0073	-0.0462	0.0165	0.9585
30.0521	10.3317	30.1938	-2.3172	-13.0372	6.8673	33.6689	21.6041	727.9365	-33.5641	244.123	23.0342	694.6209	-0.0592	0.0182	-0.0073	-0.0462	0.0165	0.9585
30.0718	12.2561	48.1457	-2.5905	-20.7152	7.9937	53.9563	23.1019	724.5226	-35.0854	242.708	23.614	687.5984	-0.0592	0.0182	-0.0073	-0.0462	0.0165	0.9585
30.0914	12.9677	69.1191	-2.4626	-29.6541	8.1494	77.7454	23.9545	716.7205	-36.4694	239.8796	24.3017	676.7371	-0.0592	0.0182	-0.0073	-0.0462	0.0165	0.9585
30.1111	12.1727	91.497	-1.7252	-39.1433	6.9727	103.237	24.2666	704.0034	-37.4616	235.4661	24.8323	661.5455	-0.0592	0.0182	-0.0073	-0.0462	0.0165	0.9585
30.1307	10.2117	113.4623	-0.25745	-48.3947	4.4695	128.3358	24.196	686.906	-37.9016	229.6395	25.0134	642.5535	-0.0592	0.0182	-0.0073	-0.0462	0.0165	0.9585
30.1504	7.578	133.629	1.7421	-56.8363	1.0856	151.3849	23.9535	666.8958	-37.7604	222.8683	24.759	621.1744	-0.0592	0.0182	-0.0073	-0.0462	0.0165	0.9585
30.17	4.6151	151.9973	3.8615	-64.5014	-2.5524	172.317	23.7704	645.9844	-37.1255	215.7897	24.0847	599.3311	-0.0592	0.0182	-0.0073	-0.0462	0.0165	0.9585
30.1896	1.4773	169.9743	5.8486	-72.0106	-6.0955	192.6766	23.7971	625.9159	-36.1668	208.943	23.1088	578.701	-0.0592	0.0182	-0.0073	-0.0462	0.0165	0.9585
30.2093	-1.7453	189.3743	7.615	-80.1485	-9.4148	214.4772	24.003	607.3099	-35.0638	202.4961	22.0191	559.92	-0.0592	0.0182	-0.0073	-0.0462	0.0165	0.9585
30.2289	-4.958	211.6334	9.1989	-89.5262	-12.5254	239.3074	24.2007	589.4123	-33.9562	196.1755	21.0128	542.3382	-0.0592	0.0182	-0.0073	-0.0462	0.0165	0.9585
30.2486	-8.023	237.428	10.7061	-100.4225	-15.4979	267.8997	24.1612	570.5781	-32.9111	189.4406	20.2236	524.4342	-0.0592	0.0182	-0.0073	-0.0462	0.0165	0.9585
30.2682	-10.7599	266.4612	12.2673	-112.6962	-18.4088	299.8896	23.7157	549.0647	-31.9035	181.7499	19.6729	504.5305	-0.0592	0.0182	-0.0073	-0.0462	0.0165	0.9585
30.2879	-13.01	297.6126	13.9878	-125.8558	-21.3122	333.9976	22.7958	523.7003	-30.8433	172.7745	19.2857	481.4226	-0.0592	0.0182	-0.0073	-0.0462	0.0165	0.9585
30.3075	-14.6753	329.4493	15.9017	-139.2778	-24.2064	368.6099	21.4302	494.1534	-29.6421	162.472	18.9517	454.6535	-0.0592	0.0182	-0.0073	-0.0462	0.0165	0.9585
30.3271	-15.7017	360.6247	17.9625	-152.3797	-27.0174	402.2296	19.7185	460.8617	-28.259	151.0429	18.5778	424.4861	-0.0592	0.0182	-0.0073	-0.0462	0.0165	0.9585
30.3468	-16.0765	390.0654	20.0797	-164.6999	-29.6356	433.6787	17.7954	424.839	-26.6909	138.8533	18.094	391.7538	-0.0592	0.0182	-0.0073	-0.0462	0.0165	0.9585
30.3664	-15.8385	417.101	22.1513	-175.951	-31.9526	462.2333	15.8104	387.4419	-24.9707	126.3557	17.4636	357.6455	-0.0592	0.0182	-0.0073	-0.0462	0.0165	0.9585
30.3861	-15.0832	441.5209	24.0945	-186.0392	-33.8951	487.6793	13.8999	350.047	-23.1628	113.9859	16.6901	323.4062	-0.0592	0.0182	-0.0073	-0.0462	0.0165	0.9585
30.4057	-13.9443	463.538	25.8927	-195.0418	-35.4698	510.2401	12.174	313.7082	-21.3263	102.0611	15.789	290.0135	-0.0592	0.0182	-0.0073	-0.0462	0.0165	0.9585
30.4254	-12.5513	483.6951	27.6215	-203.1672	-36.7825	530.4654	10.7176	278.9487	-19.4956	90.7204	14.7624	257.9697	-0.0592	0.0182	-0.0073	-0.0462	0.0165	0.9585
30.445	-11.0327	502.8032	29.4175	-210.7356	-38.0151	549.1875	9.5454	245.7975	-17.6897	79.9429	13.6213	227.3355	-0.0592	0.0182	-0.0073	-0.0462	0.0165	0.9585
30.4646	-9.5232	521.8858	31.4296	-218.1625	-39.3765	567.4816	8.5745	214.0095	-15.9269	69.6224	12.4121	197.9286	-0.0592	0.0182	-0.0073	-0.0462	0.0165	0.9585
30.4843	-8.151	542.0504	33.7763	-225.9109	-41.0456	586.5309	7.6745	183.3442	-14.2237	59.6625	11.1967	169.5611	-0.0592	0.0182	-0.0073	-0.0462	0.0165	0.9585
30.5039	-7.0418	564.3175	36.5164	-234.4239	-43.1428	607.4537	6.7229	153.788	-12.5912	50.0484	10.0265	142.2384	-0.0592	0.0182	-0.0073	-0.0462	0.0165	0.9585
30.5236	-6.3231	589.4809	39.6434	-244.0646	-45.7258	631.1555	5.6446	125.6369	-11.0349	40.8752	8.93	116.2372	-0.0592	0.0182	-0.0073	-0.0462	0.0165	0.9585
30.5432	-6.0947	618.0008	43.0883	-255.0689	-48.781	658.2025	4.424	99.4188	-9.5447	32.3201	7.9031	92.0367	-0.0592	0.0182	-0.0073	-0.0462	0.0165	0.9585
30.5629	-6.3748	649.8906	46.7153	-267.4954	-52.1949	688.6755	3.0936	75.737	-8.092	24.5878	6.918	70.1847	-0.0592	0.0182	-0.0073	-0.0462	0.0165	0.9585
30.5825	-7.0626	684.5772	50.3489	-281.1581	-55.7653	722.0143	1.7355	55.1033	-6.6547	17.8538	5.9403	51.1497	-0.0592	0.0182	-0.0073	-0.0462	0.0165	0.9585
30.6021	-7.9811	720.8871	53.8071	-295.6115	-59.2454	757.011	0.48579	37.8447	-5.2396	12.2312	4.9459	35.2302	-0.0592	0.0182	-0.0073	-0.0462	0.0165	0.9585
30.6218	-8.9544	757.2036	56.928	-310.2042	-62.3988	791.9935	-0.49	24.0727	-3.8883	7.7585	3.9336	22.5292	-0.0592	0.0182	-0.0073	-0.0462	0.0165	0.9585
30.6414	-9.8479	791.6863	59.5961	-324.1671	-65.043	825.0613	-1.0562	13.6892	-2.6687	4.4008	2.9323	12.9555	-0.0592	0.0182	-0.0073	-0.0462	0.0165	0.9585
30.6611	-10.5667	822.5625	61.7366	-336.7383	-67.0476	854.3866	-1.219	6.4361	-1.6557	2.0673	2.0154	6.2686	-0.0592	0.0182	-0.0073	-0.0462	0.0165	0.9585
30.6807	-11.0377	848.3815	63.2943	-347.2783	-68.3099	878.4696	-1.1291	1.8851	-0.895	0.61237	1.2672	2.0757	-0.0592	0.0182	-0.0073	-0.0462	0.0165	0.9585
30.7004	-11.1773	868.0693	64.2387	-355.302	-68.7512	896.1797	-0.92035	-0.55509	-0.37762	-0.16003	0.71546	-0.16764	-0.0592	0.0182	-0.0073	-0.0462	0.0165	0.9585
30.72	-10.8724	880.829	64.5909	-360.4476	-68.3448	906.6517	-0.6835	-1.5039	-0.063921	-0.45316	0.3476	-1.035	-0.0592	0.0182	-0.0073	-0.0462	0.0165	0.9585
30.7396	-10.0017	886.0666	64.4224	-362.4471	-67.1303	909.2316	-0.47136	-1.5173	0.097395	-0.44872	0.13015	-1.0369	-0.0592	0.0182	-0.0073	-0.0462	0.0165	0.9585
